<svg width="37" height="26" viewBox="0 0 37 26" fill="none" xmlns="http://www.w3.org/2000/svg">
<rect x="1.25061" y="0.851562" width="34.7979" height="23.9029" rx="5.5" fill="white"/>
<path fill-rule="evenodd" clip-rule="evenodd" d="M10.6312 9.00843C10.3302 9.37357 9.84861 9.66157 9.36704 9.62042C9.30684 9.12672 9.54261 8.60216 9.81851 8.27816C10.1195 7.90274 10.6462 7.63532 11.0726 7.61475C11.1228 8.12902 10.9271 8.63301 10.6312 9.00843ZM11.0676 9.71818C10.6433 9.69315 10.2562 9.84899 9.9435 9.97486C9.74228 10.0559 9.57188 10.1245 9.44225 10.1245C9.29677 10.1245 9.11934 10.0522 8.92012 9.97106L8.92012 9.97106C8.65908 9.86475 8.36065 9.74321 8.04768 9.74904C7.33034 9.75932 6.66316 10.1759 6.29696 10.8393C5.5445 12.1661 6.10132 14.1307 6.8287 15.2106C7.18486 15.7455 7.61126 16.3318 8.17309 16.3112C8.42027 16.3016 8.59807 16.2243 8.78208 16.1442C8.99393 16.0521 9.214 15.9563 9.55762 15.9563C9.88933 15.9563 10.0998 16.0496 10.3018 16.1391C10.4939 16.2242 10.6783 16.3059 10.9522 16.3009C11.5341 16.2906 11.9003 15.7661 12.2564 15.2312C12.6408 14.6572 12.8097 14.097 12.8353 14.0119L12.8384 14.0021C12.8377 14.0015 12.833 13.9992 12.8246 13.9953C12.6961 13.935 11.7141 13.4741 11.7046 12.2381C11.6952 11.2007 12.4836 10.6751 12.6077 10.5924C12.6153 10.5873 12.6203 10.5839 12.6226 10.5822C12.121 9.82104 11.3384 9.73875 11.0676 9.71818ZM15.0958 16.2443V8.22672H18.0304C19.5453 8.22672 20.6038 9.29641 20.6038 10.8598C20.6038 12.4232 19.5253 13.5032 17.9902 13.5032H16.3097V16.2443H15.0958ZM16.3096 9.27586H17.7092C18.7627 9.27586 19.3646 9.85185 19.3646 10.865C19.3646 11.8781 18.7627 12.4592 17.7042 12.4592H16.3096V9.27586ZM24.612 15.2826C24.2909 15.91 23.5836 16.306 22.8211 16.306C21.6924 16.306 20.9048 15.6168 20.9048 14.578C20.9048 13.5495 21.6673 12.958 23.0769 12.8706L24.5919 12.778V12.3358C24.5919 11.6826 24.1755 11.3278 23.4331 11.3278C22.8211 11.3278 22.3746 11.6518 22.2843 12.1455H21.1908C21.2259 11.1066 22.179 10.3507 23.4682 10.3507C24.8578 10.3507 25.7607 11.0964 25.7607 12.2535V16.2443H24.637V15.2826H24.612ZM23.147 15.3545C22.4999 15.3545 22.0886 15.0357 22.0886 14.5471C22.0886 14.0431 22.4849 13.75 23.2424 13.7037L24.5918 13.6163V14.0688C24.5918 14.8197 23.9697 15.3545 23.147 15.3545ZM29.4878 16.558C29.0012 17.9619 28.4444 18.4248 27.2605 18.4248C27.1702 18.4248 26.8692 18.4145 26.799 18.3939V17.4322C26.8743 17.4425 27.0599 17.4528 27.1552 17.4528C27.6919 17.4528 27.9929 17.2214 28.1785 16.6197L28.2889 16.2648L26.2322 10.4278H27.5013L28.931 15.1643H28.9561L30.3858 10.4278H31.6198L29.4878 16.558Z" fill="black"/>
<rect x="1.25061" y="0.851562" width="34.7979" height="23.9029" rx="5.5" stroke="#F2F4F7"/>
</svg>
