<svg width="36" height="25" viewBox="0 0 36 25" fill="none" xmlns="http://www.w3.org/2000/svg">
<rect x="0.553833" y="0.515625" width="34.7979" height="23.9029" rx="5.5" fill="white"/>
<path fill-rule="evenodd" clip-rule="evenodd" d="M17.8791 17.478C16.6505 18.5136 15.0568 19.1387 13.3153 19.1387C9.42957 19.1387 6.27954 16.0262 6.27954 12.1867C6.27954 8.34716 9.42957 5.23462 13.3153 5.23462C15.0568 5.23462 16.6505 5.85978 17.8791 6.89537C19.1077 5.85978 20.7014 5.23462 22.4428 5.23462C26.3286 5.23462 29.4786 8.34716 29.4786 12.1867C29.4786 16.0262 26.3286 19.1387 22.4428 19.1387C20.7014 19.1387 19.1077 18.5136 17.8791 17.478Z" fill="#ED0006"/>
<path fill-rule="evenodd" clip-rule="evenodd" d="M17.8792 17.478C19.3919 16.2028 20.3512 14.3054 20.3512 12.1867C20.3512 10.0679 19.3919 8.17051 17.8792 6.89537C19.1077 5.85978 20.7014 5.23462 22.4429 5.23462C26.3287 5.23462 29.4787 8.34716 29.4787 12.1867C29.4787 16.0262 26.3287 19.1387 22.4429 19.1387C20.7014 19.1387 19.1077 18.5136 17.8792 17.478Z" fill="#F9A000"/>
<path fill-rule="evenodd" clip-rule="evenodd" d="M17.8791 17.478C19.3918 16.2029 20.3511 14.3055 20.3511 12.1868C20.3511 10.068 19.3918 8.17064 17.8791 6.89551C16.3663 8.17064 15.4071 10.068 15.4071 12.1868C15.4071 14.3055 16.3663 16.2029 17.8791 17.478Z" fill="#FF5E00"/>
<rect x="0.553833" y="0.515625" width="34.7979" height="23.9029" rx="5.5" stroke="#F2F4F7"/>
</svg>
