<svg width="97" height="38" viewBox="0 0 97 38" fill="none" xmlns="http://www.w3.org/2000/svg">
<path d="M79.3819 20.6142C77.8673 20.6142 76.6309 19.3778 76.6309 17.8632C76.6309 16.3332 77.8673 15.1122 79.3819 15.1122C80.8965 15.1122 82.1329 16.3486 82.1329 17.8632C82.1483 19.3778 80.9119 20.6142 79.3819 20.6142ZM79.3819 12.4849C76.4145 12.4849 74.0035 14.8958 74.0035 17.8632C74.0035 20.8306 76.4145 23.2416 79.3819 23.2416C82.3492 23.2416 84.7602 20.8306 84.7602 17.8632C84.7602 14.8804 82.3492 12.4849 79.3819 12.4849Z" fill="black"/>
<path d="M54.685 20.6142C53.1704 20.6142 51.9341 19.3778 51.9341 17.8632C51.9341 16.3332 53.1704 15.1122 54.685 15.1122C56.1996 15.1122 57.436 16.3486 57.436 17.8632C57.436 19.3778 56.1996 20.6142 54.685 20.6142ZM54.685 12.4849C51.7177 12.4849 49.3067 14.8958 49.3067 17.8632C49.3067 20.8306 51.7177 23.2416 54.685 23.2416C57.6524 23.2416 60.0634 20.8306 60.0634 17.8632C60.0479 14.8804 57.6524 12.4849 54.685 12.4849Z" fill="black"/>
<path d="M73.6639 20.7689C73.3239 20.8617 72.7984 20.9699 72.613 20.9699C71.6857 20.9699 71.5002 20.6453 71.5002 19.7798V14.8033H73.6948V12.7323H71.5002V9.7959H69.0274L68.502 12.7323H66.7864H66.6474C65.241 12.7323 64.1746 13.5978 63.4945 14.9424L62.6445 12.7323H60.8672V23.0408H63.8964V18.5589C63.8964 16.3024 65.2409 14.8497 66.8174 14.8033H68.471V19.9344C68.471 22.3454 69.7074 23.2417 71.7166 23.2417C72.7521 23.2417 73.5557 23.0254 74.0348 22.8708L73.6639 20.7689Z" fill="black"/>
<path d="M88.4385 15.9773V23.0403H85.4866V12.7163H87.2794L87.8821 14.2927" fill="black"/>
<path d="M87.8674 14.3086C88.7638 13.2731 89.9848 12.4849 91.4221 12.4849C93.8794 12.4849 94.884 14.4476 94.884 16.2559V23.0406H91.8548V16.3486C91.8548 15.4677 91.113 14.9886 90.3248 14.9886C89.4748 14.9886 88.9338 15.4831 88.4547 15.9932" fill="black"/>
<path d="M37.5449 8.99219H40.9296L45.5661 17.817V8.99219H48.3634V23.0408H45.3033L40.3423 13.3196V23.0408H37.5449V8.99219Z" fill="black"/>
<path d="M94.8843 12.7319V12.9328H95.1625V13.9065H95.3943V12.9328H95.6879V12.7319H94.8843Z" fill="black"/>
<path d="M96.5685 12.7319L96.3676 13.5047L96.1513 12.7319H95.8422V13.9065H96.0431V12.9792L96.2904 13.9065H96.4449L96.6922 12.9792V13.9065H96.8776V12.7319H96.5685Z" fill="black"/>
<path d="M16.6041 10.6614C13.6677 10.6614 10.9012 11.805 8.81479 13.8914C6.72836 15.9779 5.58469 18.7443 5.58469 21.6808C5.58469 24.6172 6.72836 27.3836 8.81479 29.4701C10.9012 31.5565 13.6677 32.7002 16.6041 32.7002C19.5405 32.7002 22.307 31.5565 24.3934 29.4701C26.4644 27.3836 27.6081 24.6172 27.6235 21.6808C27.6235 18.7443 26.4798 15.9779 24.3934 13.8914C22.307 11.8205 19.5405 10.6614 16.6041 10.6614ZM16.6041 37.7849C7.73294 37.7849 0.5 30.5519 0.5 21.6808C0.5 12.7941 7.73294 5.57666 16.6041 5.57666C25.4753 5.57666 32.7082 12.7941 32.7082 21.6808C32.7082 30.5519 25.4753 37.7849 16.6041 37.7849Z" fill="#FFC20E"/>
<path d="M35.3974 3.08838H34.1455V4.34023H35.3974V3.08838Z" fill="#FFC20E"/>
<path d="M35.3974 0.584473H34.1455V1.83633H35.3974V0.584473Z" fill="#FFC20E"/>
<path d="M31.7968 4.33984H30.6223V5.56079H31.7968V4.33984Z" fill="white"/>
<path d="M29.4779 6.75098H28.2879V7.92555H29.4779V6.75098Z" fill="black"/>
<path d="M33.0945 5.56104H31.7808V6.73562H33.0945V5.56104Z" fill="black"/>
<path d="M28.2885 5.62305H27.1139V6.75125H28.2885V5.62305Z" fill="black"/>
<path d="M31.7968 6.75098H30.6223V7.92555H31.7968V6.75098Z" fill="black"/>
<path d="M34.146 1.85205H32.9096V3.10391H34.146V1.85205Z" fill="black"/>
<path d="M32.9096 3.08838H30.6223V4.34023H32.9096V3.08838Z" fill="black"/>
<path d="M30.6216 4.33984H29.478V6.75082H30.6216V4.33984Z" fill="black"/>
<path d="M29.4785 7.92578V9.10036H28.2885V7.92578H26.3257V8.77581H25.2748V9.82674H26.4494V11.0013H25.2748V9.82674H24.0229V11.6659H22.8483V12.8405H22.0601V14.015H21.1947C20.221 15.4524 17.81 19.9343 17.0682 21.758C14.4254 18.0797 12.3699 16.6269 10.7625 16.1015C9.89706 15.8387 8.84612 16.7815 10.2834 18.2806C13.6063 21.9435 14.6572 24.9572 15.6618 27.3836C16.2027 28.6509 18.5982 28.8518 19.0773 27.5536C20.0973 24.8181 21.581 21.7271 23.3429 19.2079V17.8942H24.2857V16.7197H25.2748V15.3442H26.4494V14.0305H25.2593V12.825H26.4494V14.0305H27.6085V12.8405H28.5358V11.4032H29.5867V10.414H30.5913V7.92578H29.4785Z" fill="black"/>
<path d="M40.9272 33.4446C40.9272 33.8738 40.7715 34.2085 40.4602 34.4486C40.1488 34.6888 39.7263 34.8089 39.1926 34.8089C38.6144 34.8089 38.1696 34.7344 37.8583 34.5854V34.0384C38.0584 34.1229 38.2764 34.1896 38.5121 34.2385C38.7478 34.2874 38.9813 34.3119 39.2126 34.3119C39.5906 34.3119 39.8753 34.2407 40.0665 34.0984C40.2578 33.9538 40.3534 33.7537 40.3534 33.498C40.3534 33.3289 40.319 33.1911 40.25 33.0843C40.1833 32.9754 40.0699 32.8753 39.9098 32.7841C39.7519 32.6929 39.5106 32.5895 39.1859 32.4739C38.7322 32.3115 38.4076 32.1192 38.2119 31.8968C38.0184 31.6744 37.9217 31.3842 37.9217 31.0262C37.9217 30.6503 38.0629 30.3512 38.3453 30.1288C38.6277 29.9065 39.0013 29.7953 39.4661 29.7953C39.9509 29.7953 40.3968 29.8842 40.8037 30.0621L40.627 30.5558C40.2244 30.3868 39.833 30.3023 39.4528 30.3023C39.1525 30.3023 38.9179 30.3668 38.7489 30.4958C38.5799 30.6248 38.4954 30.8038 38.4954 31.0328C38.4954 31.2018 38.5265 31.3408 38.5888 31.4498C38.6511 31.5565 38.7556 31.6555 38.9024 31.7467C39.0514 31.8356 39.2782 31.9346 39.5829 32.0436C40.0943 32.2259 40.4457 32.4216 40.637 32.6307C40.8304 32.8397 40.9272 33.111 40.9272 33.4446Z" fill="black"/>
<path d="M43.3856 34.8089C42.8452 34.8089 42.4183 34.6443 42.1047 34.3152C41.7934 33.9861 41.6377 33.5291 41.6377 32.9442C41.6377 32.3549 41.7822 31.8868 42.0713 31.5399C42.3627 31.193 42.7529 31.0195 43.2422 31.0195C43.7003 31.0195 44.0628 31.1707 44.3296 31.4732C44.5965 31.7734 44.7299 32.1703 44.7299 32.664V33.0143H42.2114C42.2226 33.4435 42.3304 33.7693 42.535 33.9916C42.7418 34.214 43.032 34.3252 43.4056 34.3252C43.7993 34.3252 44.1884 34.2429 44.5732 34.0784V34.5721C44.3775 34.6566 44.1918 34.7166 44.0161 34.7522C43.8426 34.79 43.6325 34.8089 43.3856 34.8089ZM43.2355 31.4832C42.942 31.4832 42.7074 31.5788 42.5317 31.77C42.3582 31.9613 42.2559 32.2259 42.2248 32.5639H44.1362C44.1362 32.2148 44.0583 31.9479 43.9027 31.7634C43.747 31.5766 43.5246 31.4832 43.2355 31.4832Z" fill="black"/>
<path d="M47.1384 34.8089C46.6091 34.8089 46.1988 34.6466 45.9075 34.3219C45.6184 33.995 45.4738 33.5335 45.4738 32.9376C45.4738 32.326 45.6206 31.8534 45.9141 31.5199C46.2099 31.1863 46.6302 31.0195 47.175 31.0195C47.3507 31.0195 47.5264 31.0384 47.7021 31.0762C47.8778 31.114 48.0157 31.1585 48.1157 31.2096L47.9456 31.68C47.8233 31.631 47.6899 31.591 47.5453 31.5599C47.4008 31.5265 47.2729 31.5098 47.1617 31.5098C46.4189 31.5098 46.0476 31.9835 46.0476 32.9309C46.0476 33.3801 46.1376 33.7248 46.3178 33.965C46.5001 34.2051 46.7692 34.3252 47.125 34.3252C47.4297 34.3252 47.7421 34.2596 48.0624 34.1284V34.6188C47.8177 34.7455 47.5097 34.8089 47.1384 34.8089Z" fill="black"/>
<path d="M49.4534 31.0862V33.4579C49.4534 33.7559 49.5212 33.9783 49.6568 34.1251C49.7925 34.2719 50.0049 34.3452 50.294 34.3452C50.6765 34.3452 50.9556 34.2407 51.1313 34.0317C51.3092 33.8226 51.3981 33.4813 51.3981 33.0076V31.0862H51.9518V34.7422H51.4949L51.4148 34.2518H51.3848C51.2714 34.432 51.1135 34.5698 50.9111 34.6655C50.7109 34.7611 50.4819 34.8089 50.2239 34.8089C49.7792 34.8089 49.4456 34.7033 49.2232 34.492C49.003 34.2807 48.893 33.9427 48.893 33.4779V31.0862H49.4534Z" fill="black"/>
<path d="M54.7972 31.0195C54.9596 31.0195 55.1053 31.0328 55.2342 31.0595L55.1575 31.5732C55.0063 31.5399 54.8729 31.5232 54.7572 31.5232C54.4615 31.5232 54.2079 31.6433 53.9967 31.8835C53.7876 32.1236 53.6831 32.4227 53.6831 32.7808V34.7422H53.1294V31.0862H53.5864L53.6497 31.7634H53.6764C53.8121 31.5254 53.9755 31.3419 54.1668 31.213C54.358 31.084 54.5682 31.0195 54.7972 31.0195Z" fill="black"/>
<path d="M56.4718 34.7422H55.9181V31.0862H56.4718V34.7422ZM55.8714 30.0955C55.8714 29.9687 55.9025 29.8764 55.9648 29.8186C56.027 29.7586 56.1049 29.7286 56.1983 29.7286C56.2872 29.7286 56.3639 29.7586 56.4284 29.8186C56.4929 29.8787 56.5252 29.971 56.5252 30.0955C56.5252 30.22 56.4929 30.3134 56.4284 30.3757C56.3639 30.4357 56.2872 30.4658 56.1983 30.4658C56.1049 30.4658 56.027 30.4357 55.9648 30.3757C55.9025 30.3134 55.8714 30.22 55.8714 30.0955Z" fill="black"/>
<path d="M58.8268 34.3519C58.9247 34.3519 59.0192 34.3452 59.1104 34.3319C59.2016 34.3163 59.2738 34.3008 59.3272 34.2852V34.7088C59.2672 34.7377 59.1782 34.7611 59.0603 34.7789C58.9447 34.7989 58.8402 34.8089 58.7468 34.8089C58.0396 34.8089 57.686 34.4364 57.686 33.6914V31.5165H57.1623V31.2497L57.686 31.0195L57.9195 30.2389H58.2397V31.0862H59.3005V31.5165H58.2397V33.6681C58.2397 33.8882 58.292 34.0573 58.3965 34.1751C58.5011 34.293 58.6445 34.3519 58.8268 34.3519Z" fill="black"/>
<path d="M59.4807 31.0862H60.0744L60.875 33.1711C61.0507 33.647 61.1596 33.9905 61.2019 34.2018H61.2286C61.2575 34.0884 61.3175 33.8949 61.4087 33.6214C61.5021 33.3456 61.8046 32.5006 62.316 31.0862H62.9098L61.3387 35.2492C61.183 35.6606 61.0006 35.952 60.7916 36.1232C60.5848 36.2967 60.3302 36.3834 60.0277 36.3834C59.8587 36.3834 59.6919 36.3645 59.5274 36.3267V35.883C59.6497 35.9097 59.7864 35.9231 59.9377 35.9231C60.3179 35.9231 60.5892 35.7096 60.7516 35.2826L60.9551 34.7622L59.4807 31.0862Z" fill="black"/>
<path d="M67.4498 30.3023C66.9138 30.3023 66.4902 30.4813 66.1789 30.8394C65.8697 31.1952 65.7152 31.6833 65.7152 32.3038C65.7152 32.942 65.8642 33.4357 66.1622 33.7848C66.4624 34.1318 66.8894 34.3052 67.4431 34.3052C67.7833 34.3052 68.1714 34.2441 68.6073 34.1217V34.6188C68.2693 34.7455 67.8523 34.8089 67.3564 34.8089C66.6381 34.8089 66.0832 34.591 65.6918 34.1551C65.3027 33.7192 65.1081 33.0999 65.1081 32.2971C65.1081 31.7945 65.2015 31.3542 65.3883 30.9761C65.5773 30.5981 65.8486 30.3068 66.2022 30.1022C66.558 29.8976 66.9761 29.7953 67.4564 29.7953C67.9679 29.7953 68.4149 29.8887 68.7974 30.0755L68.5572 30.5625C68.1881 30.389 67.8189 30.3023 67.4498 30.3023Z" fill="black"/>
<path d="M72.0898 34.7422V32.3771C72.0898 32.0791 72.022 31.8568 71.8863 31.71C71.7507 31.5632 71.5383 31.4898 71.2492 31.4898C70.8645 31.4898 70.5832 31.5944 70.4053 31.8034C70.2296 32.0124 70.1417 32.3549 70.1417 32.8308V34.7422H69.588V29.5518H70.1417V31.1229C70.1417 31.3119 70.1328 31.4687 70.115 31.5932H70.1484C70.2574 31.4176 70.4119 31.2797 70.6121 31.1796C70.8144 31.0773 71.0446 31.0262 71.3026 31.0262C71.7496 31.0262 72.0843 31.1329 72.3066 31.3464C72.5312 31.5577 72.6435 31.8946 72.6435 32.3571V34.7422H72.0898Z" fill="black"/>
<path d="M75.3288 34.8089C74.7884 34.8089 74.3615 34.6443 74.0479 34.3152C73.7366 33.9861 73.5809 33.5291 73.5809 32.9442C73.5809 32.3549 73.7254 31.8868 74.0145 31.5399C74.3059 31.193 74.6962 31.0195 75.1854 31.0195C75.6435 31.0195 76.006 31.1707 76.2729 31.4732C76.5397 31.7734 76.6731 32.1703 76.6731 32.664V33.0143H74.1546C74.1658 33.4435 74.2736 33.7693 74.4782 33.9916C74.685 34.214 74.9752 34.3252 75.3488 34.3252C75.7425 34.3252 76.1316 34.2429 76.5164 34.0784V34.5721C76.3207 34.6566 76.135 34.7166 75.9593 34.7522C75.7858 34.79 75.5757 34.8089 75.3288 34.8089ZM75.1787 31.4832C74.8852 31.4832 74.6506 31.5788 74.4749 31.77C74.3014 31.9613 74.1991 32.2259 74.168 32.5639H76.0794C76.0794 32.2148 76.0015 31.9479 75.8459 31.7634C75.6902 31.5766 75.4678 31.4832 75.1787 31.4832Z" fill="black"/>
<path d="M79.0816 34.8089C78.5523 34.8089 78.142 34.6466 77.8507 34.3219C77.5616 33.995 77.417 33.5335 77.417 32.9376C77.417 32.326 77.5638 31.8534 77.8573 31.5199C78.1531 31.1863 78.5734 31.0195 79.1183 31.0195C79.2939 31.0195 79.4696 31.0384 79.6453 31.0762C79.821 31.114 79.9589 31.1585 80.0589 31.2096L79.8888 31.68C79.7665 31.631 79.6331 31.591 79.4885 31.5599C79.344 31.5265 79.2161 31.5098 79.1049 31.5098C78.3621 31.5098 77.9908 31.9835 77.9908 32.9309C77.9908 33.3801 78.0808 33.7248 78.261 33.965C78.4433 34.2051 78.7124 34.3252 79.0682 34.3252C79.3729 34.3252 79.6853 34.2596 80.0056 34.1284V34.6188C79.7609 34.7455 79.4529 34.8089 79.0816 34.8089Z" fill="black"/>
<path d="M81.4233 32.8708C81.5189 32.7352 81.6645 32.5573 81.8602 32.3371L83.0411 31.0862H83.6982L82.2172 32.644L83.8017 34.7422H83.1312L81.8402 33.0143L81.4233 33.3745V34.7422H80.8762V29.5518H81.4233V32.3038C81.4233 32.4261 81.4144 32.6151 81.3966 32.8708H81.4233Z" fill="black"/>
<path d="M87.6211 32.9109C87.6211 33.5069 87.471 33.9727 87.1708 34.3085C86.8706 34.6421 86.4558 34.8089 85.9265 34.8089C85.5996 34.8089 85.3094 34.7322 85.0559 34.5787C84.8024 34.4253 84.6067 34.2051 84.4688 33.9183C84.3309 33.6314 84.262 33.2956 84.262 32.9109C84.262 32.3149 84.411 31.8512 84.709 31.5199C85.007 31.1863 85.4206 31.0195 85.9499 31.0195C86.4614 31.0195 86.8672 31.1896 87.1674 31.5299C87.4699 31.8701 87.6211 32.3304 87.6211 32.9109ZM84.8357 32.9109C84.8357 33.3779 84.9291 33.7337 85.1159 33.9783C85.3027 34.2229 85.5774 34.3452 85.9399 34.3452C86.3024 34.3452 86.577 34.224 86.7638 33.9816C86.9528 33.737 87.0473 33.3801 87.0473 32.9109C87.0473 32.4461 86.9528 32.0936 86.7638 31.8534C86.577 31.611 86.3001 31.4898 85.9332 31.4898C85.5707 31.4898 85.2972 31.6088 85.1126 31.8468C84.928 32.0847 84.8357 32.4394 84.8357 32.9109Z" fill="black"/>
<path d="M89.1155 31.0862V33.4579C89.1155 33.7559 89.1833 33.9783 89.319 34.1251C89.4547 34.2719 89.667 34.3452 89.9561 34.3452C90.3386 34.3452 90.6177 34.2407 90.7934 34.0317C90.9713 33.8226 91.0603 33.4813 91.0603 33.0076V31.0862H91.614V34.7422H91.157L91.0769 34.2518H91.0469C90.9335 34.432 90.7756 34.5698 90.5732 34.6655C90.3731 34.7611 90.144 34.8089 89.8861 34.8089C89.4413 34.8089 89.1077 34.7033 88.8853 34.492C88.6652 34.2807 88.5551 33.9427 88.5551 33.4779V31.0862H89.1155Z" fill="black"/>
<path d="M93.9724 34.3519C94.0702 34.3519 94.1647 34.3452 94.2559 34.3319C94.3471 34.3163 94.4194 34.3008 94.4727 34.2852V34.7088C94.4127 34.7377 94.3237 34.7611 94.2059 34.7789C94.0902 34.7989 93.9857 34.8089 93.8923 34.8089C93.1851 34.8089 92.8316 34.4364 92.8316 33.6914V31.5165H92.3078V31.2497L92.8316 31.0195L93.0651 30.2389H93.3853V31.0862H94.4461V31.5165H93.3853V33.6681C93.3853 33.8882 93.4375 34.0573 93.5421 34.1751C93.6466 34.293 93.79 34.3519 93.9724 34.3519Z" fill="black"/>
</svg>
