<svg width="22" height="21" viewBox="0 0 22 21" fill="none" xmlns="http://www.w3.org/2000/svg">
<rect x="1.6286" y="0.919434" width="18.6772" height="18.5338" rx="9.26689" fill="#F2F4F7"/>
<g clip-path="url(#clip0_114_15253)">
<path d="M9.02164 9.86891V8.31248C9.02164 7.79649 9.22662 7.30164 9.59148 6.93678C9.95633 6.57192 10.4512 6.36694 10.9672 6.36694C11.4832 6.36694 11.978 6.57192 12.3429 6.93678C12.7077 7.30164 12.9127 7.79649 12.9127 8.31248V9.86891M8.24343 9.86891H13.6909C14.1207 9.86891 14.4691 10.2173 14.4691 10.6471V13.3709C14.4691 13.8007 14.1207 14.1491 13.6909 14.1491H8.24343C7.81363 14.1491 7.46521 13.8007 7.46521 13.3709V10.6471C7.46521 10.2173 7.81363 9.86891 8.24343 9.86891Z" stroke="#020246" stroke-width="0.778215" stroke-linecap="round" stroke-linejoin="round"/>
</g>
<rect x="1.6286" y="0.919434" width="18.6772" height="18.5338" rx="9.26689" stroke="#FCFCFD" stroke-width="2"/>
<defs>
<clipPath id="clip0_114_15253">
<rect width="9.33858" height="9.33858" fill="white" transform="translate(6.29791 5.58862)"/>
</clipPath>
</defs>
</svg>
