<svg width="37" height="26" viewBox="0 0 37 26" fill="none" xmlns="http://www.w3.org/2000/svg">
<rect x="1.25061" y="1.09302" width="34.7979" height="23.9029" rx="3.5" fill="white"/>
<path fill-rule="evenodd" clip-rule="evenodd" d="M15.9146 19.7354L16.1436 18.2318L15.6334 18.2195H13.1971L14.8903 7.12354C14.8955 7.08994 14.9126 7.05875 14.9375 7.03656C14.9625 7.01437 14.9944 7.0022 15.0278 7.0022H19.1357C20.4996 7.0022 21.4407 7.29547 21.932 7.8744C22.1624 8.14599 22.3091 8.42987 22.3801 8.74216C22.4546 9.06992 22.4558 9.46145 22.3832 9.93907L22.3779 9.97381V10.2799L22.6083 10.4148C22.8022 10.5212 22.9564 10.6429 23.0747 10.7822C23.2717 11.0145 23.3992 11.3097 23.453 11.6595C23.5087 12.0193 23.4903 12.4476 23.3992 12.9325C23.294 13.4901 23.1241 13.9759 22.8946 14.3732C22.6836 14.7394 22.4147 15.0432 22.0954 15.2785C21.7906 15.5022 21.4284 15.672 21.019 15.7806C20.6221 15.8874 20.1697 15.9413 19.6735 15.9413H19.3538C19.1253 15.9413 18.9032 16.0263 18.7289 16.1789C18.5541 16.3346 18.4385 16.5473 18.4031 16.78L18.3789 16.9154L17.9742 19.5657L17.956 19.663C17.9511 19.6938 17.9427 19.7091 17.9304 19.7195C17.9195 19.729 17.9038 19.7354 17.8885 19.7354H15.9146Z" fill="#28356A"/>
<path fill-rule="evenodd" clip-rule="evenodd" d="M22.8266 10.009C22.8145 10.0901 22.8004 10.1728 22.7847 10.2579C22.2429 13.1328 20.3895 14.126 18.0224 14.126H16.8172C16.5276 14.126 16.2837 14.3432 16.2386 14.6383L15.4468 19.8298C15.4175 20.0237 15.562 20.1983 15.7511 20.1983H17.8888C18.1419 20.1983 18.3569 20.0082 18.3968 19.7502L18.4178 19.638L18.8203 16.998L18.8461 16.8532C18.8855 16.5943 19.1011 16.4042 19.3541 16.4042H19.6738C21.7449 16.4042 23.3662 15.5351 23.8401 13.0201C24.038 11.9695 23.9356 11.0922 23.4118 10.4752C23.2533 10.2892 23.0566 10.1348 22.8266 10.009Z" fill="#298FC2"/>
<path fill-rule="evenodd" clip-rule="evenodd" d="M22.2596 9.77567C22.1768 9.75069 22.0915 9.72812 22.0039 9.70771C21.9158 9.68781 21.8256 9.67018 21.7328 9.65471C21.4078 9.60045 21.0517 9.57471 20.6703 9.57471H17.4505C17.3712 9.57471 17.2958 9.59322 17.2285 9.62669C17.0799 9.70048 16.9697 9.84579 16.9429 10.0237L16.2579 14.5078L16.2383 14.6385C16.2833 14.3433 16.5273 14.1261 16.8168 14.1261H18.0221C20.3891 14.1261 22.2426 13.1325 22.7843 10.2581C22.8005 10.173 22.8141 10.0902 22.8263 10.0092C22.6892 9.93403 22.5408 9.86975 22.381 9.81498C22.3415 9.80141 22.3007 9.78835 22.2596 9.77567Z" fill="#22284F"/>
<path fill-rule="evenodd" clip-rule="evenodd" d="M16.9431 10.0236C16.9698 9.84568 17.0801 9.70038 17.2287 9.62709C17.2965 9.59349 17.3713 9.57498 17.4507 9.57498H20.6705C21.0519 9.57498 21.408 9.60085 21.733 9.65511C21.8258 9.67045 21.916 9.68821 22.0041 9.70811C22.0916 9.7284 22.177 9.75109 22.2598 9.77595C22.3009 9.78862 22.3417 9.80181 22.3815 9.81487C22.5414 9.86964 22.6899 9.93443 22.8269 10.0091C22.9881 8.94673 22.8256 8.22338 22.2699 7.56838C21.6571 6.84719 20.5514 6.53857 19.1364 6.53857H15.0283C14.7393 6.53857 14.4927 6.75577 14.4481 7.05145L12.737 18.2615C12.7033 18.4832 12.8688 18.6833 13.0852 18.6833H15.6213L16.9431 10.0236Z" fill="#28356A"/>
<rect x="1.25061" y="1.09302" width="34.7979" height="23.9029" rx="3.5" stroke="#F2F4F7"/>
</svg>
