<svg width="37" height="25" viewBox="0 0 37 25" fill="none" xmlns="http://www.w3.org/2000/svg">
<rect x="1.41736" y="0.515625" width="34.7979" height="23.9029" rx="3.5" fill="white"/>
<path fill-rule="evenodd" clip-rule="evenodd" d="M19.8727 8.46371L18.0806 8.85963V7.36393L19.8727 6.97534V8.46371ZM23.5995 9.29213C22.8998 9.29213 22.45 9.62939 22.2001 9.86401L22.1073 9.40944H20.5365V17.9584L22.3215 17.5698L22.3286 15.4949C22.5857 15.6855 22.9641 15.9568 23.5924 15.9568C24.8704 15.9568 26.0342 14.901 26.0342 12.5768C26.0271 10.4506 24.849 9.29213 23.5995 9.29213ZM23.1711 14.3438C22.7499 14.3438 22.5 14.1898 22.3286 13.9992L22.3215 11.2791C22.5071 11.0665 22.7642 10.9198 23.1711 10.9198C23.8209 10.9198 24.2707 11.6677 24.2707 12.6282C24.2707 13.6106 23.828 14.3438 23.1711 14.3438ZM31.6605 12.6501C31.6605 10.7732 30.7751 9.29213 29.083 9.29213C27.3837 9.29213 26.3556 10.7732 26.3556 12.6355C26.3556 14.8423 27.5693 15.9568 29.3115 15.9568C30.1611 15.9568 30.8037 15.7588 31.2892 15.4802V14.0138C30.8037 14.2631 30.2468 14.4171 29.5399 14.4171C28.8474 14.4171 28.2333 14.1678 28.1548 13.3027H31.6462C31.6462 13.2625 31.6487 13.1714 31.6516 13.0663L31.6517 13.065L31.6517 13.0647C31.6557 12.921 31.6605 12.7515 31.6605 12.6501ZM28.1334 11.9537C28.1334 11.1252 28.626 10.7806 29.0759 10.7806C29.5114 10.7806 29.9755 11.1252 29.9755 11.9537H28.1334ZM18.0804 9.41695H19.8725V15.8323H18.0804V9.41695ZM16.0458 9.41693L16.16 9.95949C16.5812 9.16765 17.4166 9.32895 17.6451 9.41693V11.1033C17.4237 11.0226 16.7098 10.92 16.2885 11.4845V15.8323H14.5036V9.41693H16.0458ZM12.5899 7.82575L10.8478 8.20701L10.8407 14.0798C10.8407 15.1649 11.6332 15.9641 12.6899 15.9641C13.2754 15.9641 13.7037 15.8541 13.9394 15.7222V14.2338C13.7109 14.3291 12.5828 14.6664 12.5828 13.5813V10.9785H13.9394V9.41677H12.5828L12.5899 7.82575ZM8.37042 10.8831C7.99201 10.8831 7.76354 10.9931 7.76354 11.2791C7.76354 11.5913 8.15674 11.7286 8.64456 11.899C9.43983 12.1767 10.4865 12.5423 10.491 13.8965C10.491 15.2089 9.46996 15.9641 7.98487 15.9641C7.37084 15.9641 6.6997 15.8395 6.03569 15.5462V13.8012C6.63544 14.1385 7.39226 14.3878 7.98487 14.3878C8.3847 14.3878 8.6703 14.2778 8.6703 13.9405C8.6703 13.5947 8.24405 13.4366 7.72945 13.2458C6.94576 12.9552 5.95715 12.5886 5.95715 11.367C5.95715 10.0693 6.92103 9.29213 8.37042 9.29213C8.96303 9.29213 9.5485 9.38744 10.1411 9.62939V11.3524C9.59848 11.0518 8.91305 10.8831 8.37042 10.8831Z" fill="#6461FC"/>
<rect x="1.41736" y="0.515625" width="34.7979" height="23.9029" rx="3.5" stroke="#F2F4F7"/>
</svg>
