<svg width="37" height="25" viewBox="0 0 37 25" fill="none" xmlns="http://www.w3.org/2000/svg">
<rect x="1.16999" y="0.404733" width="35.0197" height="24.1247" rx="4.28018" fill="white"/>
<path fill-rule="evenodd" clip-rule="evenodd" d="M11.9356 16.4705H9.79835L8.19569 10.1764C8.11962 9.88689 7.9581 9.63094 7.72051 9.5103C7.12759 9.20713 6.47423 8.96586 5.76147 8.84418V8.60185H9.20438C9.67955 8.60185 10.0359 8.96586 10.0953 9.38861L10.9269 13.9287L13.0631 8.60185H15.1409L11.9356 16.4705ZM16.3289 16.4705H14.3104L15.9725 8.60185H17.9909L16.3289 16.4705ZM20.6022 10.7817C20.6616 10.3579 21.018 10.1156 21.4338 10.1156C22.0871 10.0548 22.7988 10.1765 23.3928 10.4786L23.7492 8.78442C23.1552 8.5421 22.5019 8.42041 21.9089 8.42041C19.9499 8.42041 18.5244 9.51033 18.5244 11.023C18.5244 12.1738 19.5341 12.778 20.2469 13.142C21.018 13.505 21.315 13.7473 21.2556 14.1103C21.2556 14.6547 20.6616 14.897 20.0687 14.897C19.3559 14.897 18.6432 14.7155 17.9909 14.4124L17.6345 16.1076C18.3472 16.4097 19.1183 16.5314 19.8311 16.5314C22.0277 16.5912 23.3928 15.5023 23.3928 13.8679C23.3928 11.8098 20.6022 11.6891 20.6022 10.7817V10.7817ZM30.4568 16.4705L28.8542 8.60185H27.1327C26.7764 8.60185 26.42 8.84418 26.3012 9.20713L23.3334 16.4705H25.4113L25.826 15.3208H28.379L28.6166 16.4705H30.4568ZM27.4297 10.7209L28.0226 13.6864H26.3605L27.4297 10.7209Z" fill="#172B85"/>
<rect x="1.16999" y="0.404733" width="35.0197" height="24.1247" rx="4.28018" stroke="#F2F4F7" stroke-width="0.778215"/>
</svg>
